<?xml version="1.0" encoding="UTF-8" standalone="no"?>
<svg xmlns="http://www.w3.org/2000/svg" viewBox="0 0 256 256"><g fill="#046cbb"><path d="M182 102c0-5-4-10-9-10H76a9 9 0 000 19h97c5 0 9-4 9-9zM76 130a9 9 0 000 18h59a9 9 0 000-18H76z"/><path d="M98 229H67c-10 0-19-8-19-19V46c0-11 9-19 19-19h115c10 0 19 8 19 19v57a9 9 0 0018 0V46c0-21-16-38-37-38H67C46 8 30 25 30 46v164c0 21 16 38 37 38h31a9 9 0 000-19z"/><path d="M173 55H76a9 9 0 000 19h97a9 9 0 000-19z"/></g><path fill="#fc0" d="M186 139l11 32 33 1c4 0 6 5 3 8l-27 20 10 32c1 4-3 8-7 5l-27-20-27 20c-3 3-8-1-7-5l10-32-27-20c-3-3-1-8 3-8l33-1 11-32c1-4 7-4 8 0z"/></svg>